<svg width="27" height="28" viewBox="0 0 27 28" fill="none" xmlns="http://www.w3.org/2000/svg">
<path d="M18.7184 0H8.2833C7.51667 0 6.78143 0.304545 6.23934 0.846638C5.69724 1.38873 5.3927 2.12397 5.3927 2.8906V12.1213C5.3927 12.8879 5.69724 13.6231 6.23934 14.1652C6.78143 14.7073 7.51667 15.0119 8.2833 15.0119H9.35764L13.1347 19.4586C13.1984 19.533 13.2832 19.5862 13.3779 19.6111C13.4725 19.6361 13.5726 19.6316 13.6646 19.5983C13.7581 19.5651 13.8389 19.5037 13.8958 19.4226C13.9528 19.3414 13.9831 19.2446 13.9826 19.1454V15.0119H18.7184C19.485 15.0119 20.2203 14.7073 20.7623 14.1652C21.3044 13.6231 21.609 12.8879 21.609 12.1213V2.8906C21.609 2.12397 21.3044 1.38873 20.7623 0.846638C20.2203 0.304545 19.485 0 18.7184 0ZM20.6455 12.1213C20.6455 12.6324 20.4424 13.1225 20.081 13.4839C19.7196 13.8453 19.2295 14.0483 18.7184 14.0483H13.5008C13.3731 14.0483 13.2505 14.0991 13.1602 14.1894C13.0698 14.2798 13.0191 14.4023 13.0191 14.5301V17.835L9.9454 14.2169C9.89994 14.1643 9.84375 14.1221 9.78059 14.093C9.71744 14.0639 9.64879 14.0487 9.57926 14.0483H8.2833C7.77221 14.0483 7.28206 13.8453 6.92066 13.4839C6.55926 13.1225 6.35623 12.6324 6.35623 12.1213V2.8906C6.35623 2.37951 6.55926 1.88936 6.92066 1.52796C7.28206 1.16656 7.77221 0.963534 8.2833 0.963534H18.7184C19.2295 0.963534 19.7196 1.16656 20.081 1.52796C20.4424 1.88936 20.6455 2.37951 20.6455 2.8906V12.1213Z" fill="#BC6C25"/>
<path d="M19.6 3.49281C19.6 3.62059 19.5492 3.74313 19.4588 3.83348C19.3685 3.92382 19.246 3.97458 19.1182 3.97458H7.88338C7.75561 3.97458 7.63307 3.92382 7.54272 3.83348C7.45237 3.74313 7.40161 3.62059 7.40161 3.49281C7.40161 3.36504 7.45237 3.2425 7.54272 3.15215C7.63307 3.0618 7.75561 3.01105 7.88338 3.01105H19.1182C19.246 3.01105 19.3685 3.0618 19.4588 3.15215C19.5492 3.2425 19.6 3.36504 19.6 3.49281Z" fill="#BC6C25"/>
<path d="M19.6 5.50175C19.6 5.62952 19.5492 5.75206 19.4589 5.84241C19.3685 5.93276 19.246 5.98352 19.1182 5.98352H7.88338C7.75561 5.98352 7.63307 5.93276 7.54272 5.84241C7.45237 5.75206 7.40161 5.62952 7.40161 5.50175C7.40161 5.37398 7.45237 5.25144 7.54272 5.16109C7.63307 5.07074 7.75561 5.01998 7.88338 5.01998H19.1182C19.1816 5.01934 19.2446 5.03136 19.3033 5.05534C19.3621 5.07933 19.4154 5.11479 19.4603 5.15965C19.5052 5.20452 19.5406 5.25788 19.5646 5.31663C19.5886 5.37537 19.6006 5.4383 19.6 5.50175Z" fill="#BC6C25"/>
<path d="M19.6 7.50594C19.6 7.63371 19.5492 7.75625 19.4588 7.8466C19.3685 7.93695 19.246 7.9877 19.1182 7.9877H7.88338C7.75561 7.9877 7.63307 7.93695 7.54272 7.8466C7.45237 7.75625 7.40161 7.63371 7.40161 7.50594C7.40161 7.37816 7.45237 7.25562 7.54272 7.16528C7.63307 7.07493 7.75561 7.02417 7.88338 7.02417H19.1182C19.246 7.02417 19.3685 7.07493 19.4588 7.16528C19.5492 7.25562 19.6 7.37816 19.6 7.50594Z" fill="#BC6C25"/>
<path d="M19.6 9.51487C19.6 9.64265 19.5493 9.76519 19.4589 9.85553C19.3686 9.94588 19.246 9.99664 19.1183 9.99664H11.8966C11.7688 9.99664 11.6462 9.94588 11.5559 9.85553C11.4656 9.76519 11.4148 9.64265 11.4148 9.51487C11.4148 9.3871 11.4656 9.26456 11.5559 9.17421C11.6462 9.08386 11.7688 9.03311 11.8966 9.03311H19.1183C19.1817 9.03246 19.2446 9.04448 19.3034 9.06847C19.3621 9.09245 19.4155 9.12791 19.4603 9.17278C19.5052 9.21764 19.5407 9.27101 19.5647 9.32975C19.5886 9.38849 19.6007 9.45143 19.6 9.51487Z" fill="#BC6C25"/>
<path d="M19.6 11.5191C19.6 11.6468 19.5493 11.7694 19.4589 11.8597C19.3686 11.9501 19.246 12.0008 19.1183 12.0008H11.8966C11.7688 12.0008 11.6462 11.9501 11.5559 11.8597C11.4656 11.7694 11.4148 11.6468 11.4148 11.5191C11.4148 11.3913 11.4656 11.2687 11.5559 11.1784C11.6462 11.088 11.7688 11.0373 11.8966 11.0373H19.1183C19.246 11.0373 19.3686 11.088 19.4589 11.1784C19.5493 11.2687 19.6 11.3913 19.6 11.5191Z" fill="#BC6C25"/>
<path d="M7.06925 20.7401C7.03718 20.6438 6.97581 20.5601 6.89374 20.5004C6.81167 20.4408 6.713 20.4084 6.61157 20.4077H4.62187L4.00521 18.5143C3.97353 18.4179 3.91223 18.334 3.83004 18.2745C3.74786 18.215 3.64899 18.183 3.54753 18.183C3.44607 18.183 3.3472 18.215 3.26502 18.2745C3.18283 18.334 3.12153 18.4179 3.08985 18.5143L2.47319 20.4077H0.483491C0.381536 20.4073 0.282094 20.4393 0.199474 20.499C0.116855 20.5588 0.0553184 20.6432 0.0237205 20.7401C-0.00787739 20.8371 -0.00790753 20.9415 0.0236344 21.0385C0.0551763 21.1354 0.116664 21.2199 0.199249 21.2797L1.80835 22.4504L1.19651 24.3389C1.17293 24.4112 1.16681 24.488 1.17863 24.5631C1.19046 24.6383 1.21989 24.7095 1.26453 24.7711C1.30917 24.8326 1.36775 24.8827 1.43547 24.9173C1.5032 24.9519 1.57815 24.9699 1.65419 24.97C1.75619 24.97 1.85562 24.938 1.93843 24.8785L3.54753 23.7078L5.15663 24.8785C5.23867 24.9378 5.33732 24.9698 5.43856 24.9698C5.5398 24.9699 5.63849 24.9381 5.72062 24.8789C5.80276 24.8197 5.86415 24.7361 5.89609 24.6401C5.92803 24.544 5.92889 24.4403 5.89855 24.3437L5.28189 22.4504L6.89581 21.2797C6.97735 21.219 7.03789 21.1344 7.06899 21.0377C7.10009 20.9409 7.10018 20.8369 7.06925 20.7401ZM4.26055 22.4118L4.52552 23.2308L3.83177 22.725C3.74956 22.664 3.64991 22.631 3.54753 22.631C3.44516 22.631 3.3455 22.664 3.26329 22.725L2.56954 23.2308L2.83451 22.4118C2.86582 22.3158 2.8659 22.2123 2.83474 22.1162C2.80358 22.0202 2.74279 21.9364 2.66108 21.8771L1.96733 21.3712H2.82488C2.92631 21.3705 3.02498 21.338 3.10705 21.2784C3.18912 21.2188 3.25049 21.135 3.28256 21.0388L3.54753 20.2198L3.8125 21.0388C3.844 21.1354 3.90522 21.2195 3.98742 21.2792C4.06962 21.3389 4.16859 21.3711 4.27018 21.3712H5.12773L4.43398 21.8771C4.35139 21.9357 4.2899 22.0194 4.25866 22.1157C4.22741 22.212 4.22807 22.3159 4.26055 22.4118Z" fill="#BC6C25"/>
<path d="M17.0226 23.226C16.9911 23.1294 16.9299 23.0453 16.8477 22.9856C16.7655 22.9259 16.6665 22.8937 16.5649 22.8936H14.5752L13.9586 21.0003C13.9269 20.9039 13.8656 20.8199 13.7834 20.7604C13.7012 20.7009 13.6024 20.6689 13.5009 20.6689C13.3994 20.6689 13.3006 20.7009 13.2184 20.7604C13.1362 20.8199 13.0749 20.9039 13.0432 21.0003L12.4266 22.8936H10.4369C10.3349 22.8932 10.2355 22.9252 10.1528 22.985C10.0702 23.0447 10.0087 23.1291 9.97709 23.2261C9.94549 23.323 9.94546 23.4274 9.977 23.5244C10.0085 23.6214 10.07 23.7058 10.1526 23.7656L11.7665 24.9363L11.1499 26.8296C11.1189 26.9264 11.119 27.0305 11.1501 27.1272C11.1812 27.224 11.2418 27.3086 11.3233 27.3692C11.4064 27.428 11.5057 27.4595 11.6076 27.4595C11.7094 27.4595 11.8087 27.428 11.8918 27.3692L13.5009 26.1985L15.11 27.3692C15.1928 27.4287 15.2922 27.4608 15.3942 27.4608C15.4962 27.4608 15.5957 27.4287 15.6785 27.3692C15.76 27.3086 15.8206 27.224 15.8517 27.1272C15.8828 27.0305 15.8829 26.9264 15.8519 26.8296L15.2353 24.9363L16.8492 23.7656C16.9314 23.7055 16.9925 23.6209 17.0236 23.524C17.0548 23.4271 17.0544 23.3227 17.0226 23.226ZM14.2139 24.9026L14.4789 25.7168L13.7851 25.2109C13.7023 25.1514 13.6029 25.1194 13.5009 25.1194C13.3989 25.1194 13.2995 25.1514 13.2167 25.2109L12.5229 25.7168L12.7879 24.9026C12.8203 24.8059 12.821 24.7014 12.7898 24.6043C12.7586 24.5072 12.6971 24.4227 12.6144 24.363L11.9207 23.8571H12.7782C12.8798 23.8571 12.9788 23.8249 13.061 23.7652C13.1432 23.7055 13.2044 23.6213 13.2359 23.5247L13.5009 22.7105L13.7659 23.5247C13.7974 23.6213 13.8586 23.7055 13.9408 23.7652C14.023 23.8249 14.122 23.8571 14.2236 23.8571H15.0811L14.3874 24.363C14.3047 24.4227 14.2432 24.5072 14.212 24.6043C14.1808 24.7014 14.1815 24.8059 14.2139 24.9026Z" fill="#BC6C25"/>
<path d="M26.9759 20.7401C26.945 20.6431 26.8839 20.5586 26.8016 20.4988C26.7192 20.439 26.6199 20.4071 26.5182 20.4077H24.5285L23.9118 18.5143C23.8801 18.4179 23.8188 18.334 23.7367 18.2745C23.6545 18.215 23.5556 18.183 23.4541 18.183C23.3527 18.183 23.2538 18.215 23.1716 18.2745C23.0895 18.334 23.0281 18.4179 22.9965 18.5143L22.3798 20.4077H20.3901C20.2882 20.4073 20.1887 20.4393 20.1061 20.499C20.0235 20.5588 19.9619 20.6432 19.9303 20.7401C19.8987 20.8371 19.8987 20.9415 19.9303 21.0385C19.9618 21.1354 20.0233 21.2199 20.1059 21.2797L21.7198 22.4504L21.1031 24.3437C21.0728 24.4403 21.0736 24.544 21.1056 24.6401C21.1375 24.7361 21.1989 24.8197 21.2811 24.8789C21.3632 24.9381 21.4619 24.9699 21.5631 24.9698C21.6644 24.9698 21.763 24.9378 21.845 24.8785L23.4541 23.7078L25.0632 24.8785C25.1461 24.938 25.2455 24.97 25.3475 24.97C25.4497 24.9715 25.5496 24.9393 25.6317 24.8785C25.7147 24.819 25.7764 24.7345 25.8076 24.6373C25.8389 24.5402 25.838 24.4355 25.8052 24.3389L25.1933 22.4504L26.8024 21.2797C26.8847 21.2196 26.9457 21.135 26.9769 21.0381C27.008 20.9411 27.0077 20.8368 26.9759 20.7401ZM24.1672 22.4118L24.4321 23.2308L23.7384 22.725C23.6559 22.6648 23.5563 22.6327 23.4541 22.6334C23.3521 22.6334 23.2527 22.6654 23.1699 22.725L22.4762 23.2308L22.7411 22.4118C22.7736 22.3159 22.7743 22.212 22.743 22.1157C22.7118 22.0194 22.6503 21.9357 22.5677 21.8771L21.874 21.3712H22.7315C22.8331 21.3711 22.9321 21.3389 23.0143 21.2792C23.0965 21.2195 23.1577 21.1354 23.1892 21.0388L23.4541 20.2198L23.7191 21.0388C23.7512 21.135 23.8126 21.2188 23.8946 21.2784C23.9767 21.338 24.0754 21.3705 24.1768 21.3712H25.0343L24.3406 21.8771C24.2589 21.9364 24.1981 22.0202 24.1669 22.1162C24.1358 22.2123 24.1359 22.3158 24.1672 22.4118Z" fill="#BC6C25"/>
</svg>
