<svg width="17" height="17" viewBox="0 0 17 17" fill="none" xmlns="http://www.w3.org/2000/svg">
<path fill-rule="evenodd" clip-rule="evenodd" d="M2.55 1.7C2.08056 1.7 1.7 2.08056 1.7 2.55V14.45C1.7 14.9195 2.08056 15.3 2.55 15.3H8.5H9.35C9.81946 15.3 10.2 14.9195 10.2 14.45V2.55C10.2 2.08056 9.81946 1.7 9.35 1.7H2.55ZM2.55 17H8.5H9.35H14.45C15.8584 17 17 15.8584 17 14.45V5.95C17 4.54168 15.8584 3.4 14.45 3.4H11.9V2.55C11.9 1.14168 10.7584 0 9.35 0H2.55C1.14168 0 0 1.14168 0 2.55V14.45C0 15.8584 1.14168 17 2.55 17ZM14.45 15.3H11.7549C11.8488 15.0341 11.9 14.748 11.9 14.45V5.1H14.45C14.9195 5.1 15.3 5.48056 15.3 5.95V14.45C15.3 14.9195 14.9195 15.3 14.45 15.3ZM4.25 10.2H2.55V11.9H4.25V10.2ZM5.1 10.2H6.8V11.9H5.1V10.2ZM9.35 10.2H7.65V11.9H9.35V10.2ZM12.75 10.2H14.45V11.9H12.75V10.2ZM14.45 6.8H12.75V8.5H14.45V6.8ZM2.55 6.8H4.25V8.5H2.55V6.8ZM6.8 6.8H5.1V8.5H6.8V6.8ZM7.65 6.8H9.35V8.5H7.65V6.8ZM4.25 3.4H2.55V5.1H4.25V3.4ZM5.1 3.4H6.8V5.1H5.1V3.4ZM9.35 3.4H7.65V5.1H9.35V3.4Z" fill="#FEFAE0"/>
</svg>
