<svg width="24" height="24" viewBox="0 0 24 24" fill="none" xmlns="http://www.w3.org/2000/svg">
<path d="M2.91464 11.2395H22.0436C22.2972 11.2395 22.5405 11.3515 22.7199 11.5508C22.8993 11.7501 23 12.0205 23 12.3024C23 12.5842 22.8993 12.8546 22.7199 13.0539C22.5405 13.2532 22.2972 13.3652 22.0436 13.3652H2.91464C2.66097 13.3652 2.4177 13.2532 2.23833 13.0539C2.05896 12.8546 1.95819 12.5842 1.95819 12.3024C1.95819 12.0205 2.05896 11.7501 2.23833 11.5508C2.4177 11.3515 2.66097 11.2395 2.91464 11.2395Z" fill="#FEFAE0" stroke="#FEFAE0" stroke-width="2"/>
<path d="M3.31057 12.3023L11.2433 21.1155C11.4229 21.3151 11.5238 21.5858 11.5238 21.868C11.5238 22.1503 11.4229 22.4209 11.2433 22.6205C11.0638 22.8201 10.8202 22.9322 10.5662 22.9322C10.3122 22.9322 10.0686 22.8201 9.88902 22.6205L1.28099 13.0548C1.19192 12.9561 1.12125 12.8388 1.07304 12.7097C1.02482 12.5806 1 12.4421 1 12.3023C1 12.1625 1.02482 12.0241 1.07304 11.895C1.12125 11.7659 1.19192 11.6486 1.28099 11.5498L9.88902 1.98418C10.0686 1.78461 10.3122 1.67249 10.5662 1.67249C10.8202 1.67249 11.0638 1.78461 11.2433 1.98418C11.4229 2.18376 11.5238 2.45444 11.5238 2.73668C11.5238 3.01892 11.4229 3.2896 11.2433 3.48918L3.31057 12.3023Z" fill="#FEFAE0" stroke="#FEFAE0" stroke-width="2"/>
</svg>
