<svg width="27" height="27" viewBox="0 0 27 27" fill="none" xmlns="http://www.w3.org/2000/svg">
<path d="M17.7074 17.2184C17.2705 17.4256 16.7823 17.5351 16.2983 17.5351C15.753 17.5351 15.2113 17.3988 14.7309 17.138C13.8112 16.6404 13.1778 15.7248 13.0361 14.6908C12.9909 14.3598 12.9486 14.0371 12.9087 13.7198C12.6033 14.1163 12.4486 14.5562 12.5861 14.9908C12.9236 16.0558 13.7868 18.0804 12.5861 18.5203C11.3842 18.9591 10.3257 19.3698 10.927 20.18C11.6598 21.1694 12.6051 20.7914 13.4457 21.4016C13.9957 21.8016 13.5588 22.7207 13.754 23.3077C12.7986 23.7417 11.7372 23.9822 10.621 23.9822C8.44279 23.9822 6.47533 23.063 5.0865 21.5915C5.03888 20.8527 6.64023 20.8063 6.57653 20.1044C6.54201 19.724 6.88252 18.7311 8.78985 18.5203C10.699 18.3102 10.1245 16.4636 9.85901 15.8302C9.41075 14.7616 7.5689 14.4556 6.20924 14.9896C4.84838 15.5236 5.81396 13.5395 6.94919 11.4035C7.47008 10.4225 7.14445 10.0207 6.63964 9.87243C7.73022 9.20093 9.00178 8.79732 10.362 8.75148C10.4103 8.95031 10.515 9.19498 10.6978 9.49561C11.3556 10.3832 9.40003 11.3506 9.70602 11.644C10.0108 11.9375 11.2972 11.7464 11.7657 11.2505C11.9973 11.0065 12.3122 10.8106 12.6033 10.6779C12.4706 8.86697 12.4587 7.30491 12.567 5.99823C11.9354 5.88036 11.2859 5.81726 10.6198 5.81726C4.80433 5.81726 0.0740967 10.5481 0.0740967 16.3642C0.0740967 22.1802 4.80433 26.9104 10.6198 26.9104C16.4359 26.9104 21.1661 22.1802 21.1661 16.3642C21.1661 16.0665 21.1536 15.7718 21.1292 15.4807C20.1017 16.0451 18.9611 16.6255 17.7074 17.2184Z" fill="#BC6C25"/>
<path d="M23.5908 0.768529C22.6282 0.247644 21.5912 0 20.5679 0C18.3087 0 16.1192 1.20726 14.9685 3.33426C13.7696 5.55056 14.3524 11.3488 14.7786 14.4497C14.8441 14.9342 15.1382 15.3587 15.5686 15.5914C15.796 15.7147 16.0478 15.7766 16.3002 15.7766C16.5246 15.7766 16.7479 15.7278 16.9574 15.6289C19.7869 14.2895 24.96 11.6059 26.1595 9.38963C27.8287 6.30063 26.6816 2.44072 23.5908 0.768529ZM22.9491 7.51206C22.255 8.79672 20.6483 9.27474 19.3642 8.57943C18.0784 7.88412 17.6015 6.27861 18.2962 4.99336C18.9921 3.70811 20.5971 3.23068 21.8817 3.92599C23.1664 4.62189 23.6456 6.22741 22.9491 7.51206Z" fill="#BC6C25"/>
</svg>
