<svg width="25" height="27" viewBox="0 0 25 27" fill="none" xmlns="http://www.w3.org/2000/svg">
<path d="M7.71418 11.739H5.03101V14.4224H7.71418V11.739Z" fill="#BC6C25"/>
<path d="M19.4532 11.739H16.77V14.4224H19.4532V11.739Z" fill="#BC6C25"/>
<path d="M15.5402 11.739H12.8571V14.4224H15.5402V11.739Z" fill="#BC6C25"/>
<path d="M7.71418 15.9316H5.03101V18.615H7.71418V15.9316Z" fill="#BC6C25"/>
<path d="M15.5402 15.9316H12.8571V18.615H15.5402V15.9316Z" fill="#BC6C25"/>
<path d="M11.6273 15.9316H8.94409V18.615H11.6273V15.9316Z" fill="#BC6C25"/>
<path d="M19.4532 20.1241H16.77V22.8074H19.4532V20.1241Z" fill="#BC6C25"/>
<path d="M15.5402 20.1241H12.8571V22.8074H15.5402V20.1241Z" fill="#BC6C25"/>
<path d="M11.6273 20.1241H8.94409V22.8074H11.6273V20.1241Z" fill="#BC6C25"/>
<path d="M21.9071 2.9028H19.7252V4.99477C19.7252 5.77535 19.0821 6.41016 18.2917 6.41016H15.4427C14.6523 6.41016 14.0093 5.77535 14.0093 4.99477V2.9028H10.4711V4.9751C10.4711 5.76654 9.82098 6.41016 9.02179 6.41016H6.20451C5.40532 6.41016 4.75516 5.76654 4.75516 4.9751V2.9028H2.57323C1.15436 2.9028 0 4.04672 0 5.45272V24.4501C0 25.856 1.15436 27 2.57323 27H21.9071C23.3282 27 24.4842 25.8561 24.4842 24.4501V5.45272C24.4842 4.04677 23.3282 2.9028 21.9071 2.9028ZM22.6396 24.4005C22.6396 24.8519 22.3363 25.1551 21.8849 25.1551H2.59933C2.14792 25.1551 1.84465 24.8519 1.84465 24.4005V9.3914H22.6396V24.4005Z" fill="#BC6C25"/>
<path d="M6.20548 5.40564H9.02107C9.25948 5.40564 9.45344 5.213 9.45344 4.97617V1.08069C9.45344 0.484787 8.96459 0 8.36363 0H6.86286C6.26195 0 5.77295 0.484734 5.77295 1.08069V4.97617C5.773 5.213 5.96696 5.40564 6.20548 5.40564Z" fill="#BC6C25"/>
<path d="M15.4426 5.40564H18.2916C18.5209 5.40564 18.7074 5.22039 18.7074 4.99294V1.06407C18.7074 0.477404 18.226 0 17.6342 0H16.1001C15.5083 0 15.027 0.477404 15.027 1.06407V4.99294C15.0269 5.22039 15.2134 5.40564 15.4426 5.40564Z" fill="#BC6C25"/>
</svg>
