<svg width="43" height="43" viewBox="0 0 43 43" fill="none" xmlns="http://www.w3.org/2000/svg">
<path d="M36.1738 18.9353C35.7807 25.1256 29.5105 31.6982 24.7192 30.8945C26.133 29.2964 27.4986 27.7543 28.8642 26.2106C28.8113 26.1562 28.7601 26.1018 28.7073 26.0474C27.1397 27.3408 25.5721 28.6358 23.801 30.097C23.801 29.5747 23.7497 29.197 23.8103 28.8379C24.1552 26.7439 25.3981 25.1349 26.7047 23.5632C29.1438 20.6251 32.3691 19.3068 36.1738 18.9353Z" fill="#FEFAE0"/>
<path d="M21.6804 29.326C21.5157 27.1683 21.3572 25.082 21.1972 22.9958C21.1351 22.9927 21.0729 22.9912 21.0108 22.9881C20.8446 25.0914 20.6783 27.1931 20.4857 29.6462C19.8984 28.9296 19.3174 28.4648 19.0548 27.8616C16.9559 23.0285 17.1532 17.4289 21.0667 13C25.1775 16.7636 25.6203 27.7046 21.6804 29.326Z" fill="#FEFAE0"/>
<path d="M13.4106 25.9728C13.3609 26.0256 13.3112 26.0769 13.2615 26.1282C14.6333 27.6797 16.0036 29.2296 17.4748 30.8914C15.8793 31.2505 14.6535 30.6582 13.4557 30.0022C9.12427 27.6299 6.53288 24.0622 6 19.0907C10.9544 18.2202 19.465 25.7209 18.2594 29.9804C16.6281 28.6326 15.0201 27.3035 13.4106 25.9728Z" fill="#FEFAE0"/>
<path d="M30.1487 19.2695C30.1363 19.4451 29.9701 19.6705 29.8101 19.7638C28.4895 20.5395 27.1519 21.2873 25.9758 21.9573C25.6418 20.6934 25.2612 19.2726 24.9038 17.8486C24.865 17.6947 24.9007 17.46 24.9986 17.3434C26.2321 15.8727 27.7034 14.7037 29.4838 13.7819C30.1052 15.6225 30.2839 17.4289 30.1487 19.2695Z" fill="#FEFAE0"/>
<path d="M17.2433 17.9294C16.9124 19.3021 16.5457 20.667 16.1962 22.0117C15.3277 21.4614 14.3971 20.6452 13.3127 20.2426C12.09 19.7902 11.8663 19.0503 12.0124 17.9527C12.1941 16.5878 12.3604 15.2214 12.553 13.7057C14.4593 14.6742 15.8994 15.8339 17.1221 17.2641C17.2511 17.4149 17.293 17.7242 17.2433 17.9294Z" fill="#FEFAE0"/>
<circle cx="21.5" cy="21.5" r="19.5" stroke="#FEFAE0" stroke-width="3"/>
</svg>
