<svg width="27" height="27" viewBox="0 0 27 27" fill="none" xmlns="http://www.w3.org/2000/svg">
<path d="M19.6691 22.0173L14.3572 19.077C16.3314 17.5251 16.868 14.4753 16.868 12.7649V9.20512C16.868 6.84821 13.7337 4.22323 10.585 4.22323C7.43804 4.22323 4.22017 6.84821 4.22017 9.20512V12.7649C4.22017 14.3202 4.87826 17.4653 6.87276 19.0635L1.42416 22.0164C1.42416 22.0164 0 22.6503 0 23.4402V25.5762C0 26.3627 0.638679 27 1.42416 27H19.6691C20.4546 27 21.0933 26.3619 21.0933 25.5762V23.4402C21.0933 22.6023 19.6683 22.0164 19.6683 22.0164L19.6691 22.0173ZM19.4059 25.3158H1.68739V23.8086C1.80804 23.72 1.97763 23.618 2.11093 23.5574C2.15058 23.5396 2.19024 23.5203 2.2282 23.4983L7.67765 20.5455C8.17458 20.2757 8.50362 19.7767 8.55425 19.2144C8.60487 18.6522 8.36948 18.1017 7.92907 17.7485C6.51419 16.6147 5.90757 14.1052 5.90757 12.7658V9.20596C5.90757 7.99463 8.1923 5.90999 10.585 5.90999C13.0225 5.90999 15.1806 7.96681 15.1806 9.20596V12.7658C15.1806 14.0859 14.7706 16.6072 13.3144 17.7519C12.8689 18.1026 12.6285 18.6539 12.6757 19.2178C12.723 19.7817 13.052 20.2858 13.5489 20.5573L18.8609 23.4975C18.9073 23.5228 18.9672 23.5506 19.0161 23.5725C19.141 23.6256 19.2937 23.7133 19.4059 23.7909V25.3158ZM25.5742 17.8202L20.1829 14.8799C22.1572 13.328 22.7731 10.2782 22.7731 8.56784V5.00802C22.7731 2.65111 19.5603 0 16.4116 0C14.3656 0 12.2741 1.11186 11.0567 2.53478C11.751 2.57777 12.5163 2.57861 13.1777 2.78935C14.067 2.09728 15.1908 1.68676 16.4116 1.68676C18.849 1.68676 21.0857 3.76887 21.0857 5.00887V8.56869C21.0857 9.88876 20.5963 12.4101 19.141 13.5548C18.6946 13.9055 18.455 14.4568 18.5023 15.0207C18.5495 15.5855 18.8777 16.0887 19.3755 16.3602L24.7667 19.3004C24.8131 19.3257 24.873 19.3535 24.922 19.3754C25.0468 19.4285 25.1996 19.5162 25.3118 19.5938V21.0934H21.9058C22.4204 21.4811 22.5757 22.0358 22.7756 22.7793H25.5758C26.3613 22.7793 27 22.1412 27 21.3555V19.2456C26.9992 18.4069 25.5742 17.8202 25.5742 17.8202Z" fill="#BC6C25"/>
</svg>
