<svg width="26" height="26" viewBox="0 0 26 26" fill="none" xmlns="http://www.w3.org/2000/svg">
<path d="M13 26C20.1796 26 26 20.1796 26 13C26 5.82029 20.1796 0 13 0C5.82029 0 0 5.82029 0 13C0 20.1796 5.82029 26 13 26Z" fill="white"/>
<path opacity="0.4" d="M13.1569 14.0136C13.0659 14.0006 12.9489 14.0006 12.8449 14.0136C10.5569 13.9356 8.73694 12.0636 8.73694 9.76254C8.73694 7.40954 10.6349 5.49854 13.0009 5.49854C15.3539 5.49854 17.2649 7.40954 17.2649 9.76254C17.2519 12.0636 15.4449 13.9356 13.1569 14.0136Z" fill="#AA5252"/>
<path opacity="0.34" d="M21.7617 22.5938C19.4477 24.7128 16.3797 25.9998 12.9997 25.9998C9.61967 25.9998 6.55167 24.7128 4.23767 22.5938C4.36767 21.3718 5.14767 20.1758 6.53867 19.2398C10.1007 16.8738 15.9247 16.8738 19.4607 19.2398C20.8517 20.1758 21.6317 21.3718 21.7617 22.5938Z" fill="#AA5252"/>
</svg>
