<svg width="17" height="15" viewBox="0 0 17 15" fill="none" xmlns="http://www.w3.org/2000/svg">
<path d="M0 1.21429C0 0.543654 0.543654 0 1.21429 0H15.7857C16.4563 0 17 0.543654 17 1.21429C17 1.88492 16.4563 2.42857 15.7857 2.42857H1.21429C0.543655 2.42857 0 1.88492 0 1.21429Z" fill="#FEFAE0"/>
<path d="M0 7.2857C0 6.61507 0.543654 6.07141 1.21429 6.07141H15.7857C16.4563 6.07141 17 6.61507 17 7.2857C17 7.95633 16.4563 8.49998 15.7857 8.49998H1.21429C0.543655 8.49998 0 7.95633 0 7.2857Z" fill="#FEFAE0"/>
<path d="M0 13.3571C0 12.6865 0.543654 12.1428 1.21429 12.1428H15.7857C16.4563 12.1428 17 12.6865 17 13.3571C17 14.0277 16.4563 14.5714 15.7857 14.5714H1.21429C0.543655 14.5714 0 14.0277 0 13.3571Z" fill="#FEFAE0"/>
</svg>
