<svg width="20" height="17" viewBox="0 0 20 17" fill="none" xmlns="http://www.w3.org/2000/svg">
<path d="M5.67189 1.63462H1.65471C2.05697 5.38909 3.86987 8.86473 6.74314 11.39C9.63957 13.9319 13.4009 15.3303 17.2949 15.3131H18.326V11.6385L14.9248 10.4877L13.8 12.3446L13.0099 13.7308L11.5771 12.92C9.01178 11.4658 6.82568 9.45177 5.18983 7.03538L4.21232 5.53154L5.84597 4.69462L7.18503 4.01462L5.72546 1.63462M5.72546 0C6.01422 0.00210815 6.29759 0.0765588 6.54846 0.216226C6.79933 0.355894 7.00929 0.556103 7.15825 0.797692L8.56426 3.17769C8.68352 3.36792 8.76132 3.58012 8.79278 3.80104C8.82424 4.02196 8.8087 4.24684 8.74712 4.46163C8.68553 4.67642 8.57924 4.87649 8.43488 5.04933C8.29052 5.22217 8.11119 5.36407 7.90812 5.46615L6.56906 6.14615C8.06395 8.35058 10.0625 10.1859 12.4074 11.5077L13.5857 9.66385C13.7236 9.43175 13.9179 9.23638 14.1515 9.09498C14.385 8.95358 14.6506 8.8705 14.9248 8.85308C15.1118 8.85268 15.2975 8.88364 15.4738 8.94462L18.942 10.0954C19.2578 10.2174 19.5281 10.4304 19.7171 10.706C19.906 10.9816 20.0046 11.3068 19.9998 11.6385V15.3654C19.9998 15.7989 19.8235 16.2147 19.5096 16.5212C19.1957 16.8278 18.7699 17 18.326 17H17.3217C13.024 17.0011 8.87784 15.4496 5.68131 12.6443C2.48478 9.83888 0.463884 5.97791 0.00766945 1.80462C-0.014679 1.57652 0.0119381 1.34637 0.0858154 1.12889C0.159693 0.911403 0.279209 0.711357 0.436728 0.541529C0.594248 0.371701 0.786308 0.235825 1.00064 0.142582C1.21497 0.0493382 1.44686 0.000776895 1.68149 0H5.72546Z" fill="#FEFAE0"/>
</svg>
